C:\Users\u0150099\Documents\master_thesis\ReferenceData\reference_data\IK\subject1_Maarten_withMTP_scaled//IK_average.mot
version=1
nRows=7
nColumns=32
inDegrees=no
endheader
                time	         pelvis_tilt	         pelvis_list	     pelvis_rotation	           pelvis_tx	           pelvis_ty	           pelvis_tz	       hip_flexion_l	     hip_adduction_l	      hip_rotation_l	       hip_flexion_r	     hip_adduction_r	      hip_rotation_r	        knee_angle_l	        knee_angle_r	       ankle_angle_l	       ankle_angle_r	    subtalar_angle_l	    subtalar_angle_r	         mtp_angle_l	         mtp_angle_r	    lumbar_extension	      lumbar_bending	     lumbar_rotation	          arm_flex_l	           arm_add_l	           arm_rot_l	          arm_flex_r	           arm_add_r	           arm_rot_r	        elbow_flex_l	        elbow_flex_r	
          0.00000000	          0.02057770	          0.02793654	         -0.01581598	          0.00000000	          0.90247401	         -0.01356911	         -0.33098142	          0.09025794	         -0.01837471	          0.41722351	          0.01626125	         -0.09140684	         -0.15237058	         -0.11062421	          0.20850149	          0.02426045	          0.07361120	          0.06669284	          0.13920115	          0.19760164	         -0.13550349	         -0.04255368	         -0.10432566	          0.03419378	         -0.38682390	          0.15471065	         -0.11897253	         -0.24315973	          0.19718102	          0.70600288	          0.26527200	
          0.01038081	          0.02054034	          0.02484498	         -0.01539011	          0.01488937	          0.90126633	         -0.01253348	         -0.33619541	          0.08402157	         -0.02238722	          0.41801872	          0.02194326	         -0.08918587	         -0.17454858	         -0.12816637	          0.19789070	          0.01355310	          0.08360241	          0.06153535	          0.16370917	          0.19354857	         -0.13196555	         -0.03786741	         -0.10485654	          0.02878517	         -0.38444381	          0.14804980	         -0.12043807	         -0.24297582	          0.20246502	          0.70787212	          0.26036337	
          0.02076162	          0.02022804	          0.02038452	         -0.01560921	          0.02995367	          0.90022004	         -0.01143589	         -0.33911770	          0.07628627	         -0.02757883	          0.41871565	          0.02929818	         -0.08467719	         -0.20021160	         -0.14996237	          0.18273086	         -0.00053256	          0.09352024	          0.05030556	          0.19393958	          0.18882314	         -0.12773609	         -0.03154486	         -0.10435509	          0.02238392	         -0.38109091	          0.14105625	         -0.12185274	         -0.24327349	          0.20841655	          0.70832887	          0.25583489	
          0.03114242	          0.01957090	          0.01448519	         -0.01659037	          0.04513908	          0.89935842	         -0.01026969	         -0.33938094	          0.06703538	         -0.03373872	          0.41934718	          0.03841175	         -0.07800701	         -0.22962592	         -0.17467346	          0.16230152	         -0.01737861	          0.10255605	          0.03403193	          0.23006516	          0.18385419	         -0.12287340	         -0.02353432	         -0.10268325	          0.01522532	         -0.37678060	          0.13393157	         -0.12313709	         -0.24404595	          0.21483169	          0.70721164	          0.25175898	
          0.04152323	          0.01851876	          0.00718484	         -0.01837937	          0.06038270	          0.89870107	         -0.00903452	         -0.33661611	          0.05634972	         -0.04054289	          0.41997358	          0.04922679	         -0.06944420	         -0.26305138	         -0.20122300	          0.13610437	         -0.03555293	          0.10986319	          0.01426151	          0.27167234	          0.17912351	         -0.11748430	         -0.01390823	         -0.09980000	          0.00755602	         -0.37158018	          0.12688860	         -0.12418968	         -0.24525766	          0.22146558	          0.70441765	          0.24821636	
          0.05190404	          0.01705905	         -0.00138287	         -0.02092820	          0.07562259	          0.89826144	         -0.00773775	         -0.33048927	          0.04438257	         -0.04760724	          0.42058321	          0.06156131	         -0.05935238	         -0.30072775	         -0.22877159	          0.10397714	         -0.05317706	          0.11469805	         -0.00727837	          0.31774130	          0.17497371	         -0.11172217	         -0.00284843	         -0.09578823	         -0.00041770	         -0.36560528	          0.12010822	         -0.12490013	         -0.24685527	          0.22808450	          0.69994239	          0.24529936	
          0.06228485	          0.01523029	         -0.01101427	         -0.02407635	          0.09080342	          0.89804618	         -0.00639570	         -0.32073644	          0.03132835	         -0.05450702	          0.42098801	          0.07513670	         -0.04820428	         -0.34283627	         -0.25649498	          0.06618353	         -0.06841585	          0.11648692	         -0.02894842	          0.36671007	          0.17148081	         -0.10578727	          0.00938375	         -0.09086312	         -0.00854587	         -0.35901507	          0.11373395	         -0.12516798	         -0.24878041	          0.23446510	          0.69389643	          0.24313449	
